name Walk7_EMG.mot
datacolumns 17
datarows 33
range 1.58600000 1.61800000
endheader
                time	            vasmed_r	            vaslat_r	            recfem_r	               gra_r	               sar_r	            tibant_r	           perlong_r	            addmag_r	           semimem_r	          bicfemlh_r	            gasmed_r	            gaslat_r	               sol_r	               tfl_r	              gmed_r	              gmax_r	
          1.58600000	         -0.00098051	          0.00000000	          0.00000000	          0.00000000	          0.00000000	          0.00109367	          0.00000000	          0.00000000	          0.00000000	          0.00000000	          0.00000000	          0.00000000	          0.00000000	          0.00000000	          0.00000000	          0.00000000	
          1.58700000	         -0.00097937	          0.00000000	          0.00000000	          0.00000000	          0.00000000	          0.00109430	          0.00000000	          0.00000000	          0.00000000	          0.00000000	          0.00000000	          0.00000000	          0.00000000	          0.00000000	          0.00000000	          0.00000000	
          1.58800000	         -0.00097459	          0.00000000	          0.00000000	          0.00000000	          0.00000000	          0.00109700	          0.00000000	          0.00000000	          0.00000000	          0.00000000	          0.00000000	          0.00000000	          0.00000000	          0.00000000	          0.00000000	          0.00000000	
          1.58900000	         -0.00096138	          0.00000000	          0.00000000	          0.00000000	          0.00000000	          0.00110467	          0.00000000	          0.00000000	          0.00000000	          0.00000000	          0.00000000	          0.00000000	          0.00000000	          0.00000000	          0.00000000	          0.00000000	
          1.59000000	         -0.00093374	          0.00000000	          0.00000000	          0.00000000	          0.00000000	          0.00112122	          0.00000000	          0.00000000	          0.00000000	          0.00000000	          0.00000000	          0.00000000	          0.00000000	          0.00000000	          0.00000000	          0.00000000	
          1.59100000	         -0.00088562	          0.00000000	          0.00000000	          0.00000000	          0.00000000	          0.00115123	          0.00000000	          0.00000000	          0.00000000	          0.00000000	          0.00000000	          0.00000000	          0.00000000	          0.00000000	          0.00000000	          0.00000000	
          1.59200000	         -0.00081136	          0.00000000	          0.00000000	          0.00000000	          0.00000000	          0.00119977	          0.00000000	          0.00000000	          0.00000000	          0.00000000	          0.00000000	          0.00000000	          0.00000000	          0.00000000	          0.00000000	          0.00000000	
          1.59300000	         -0.00070563	          0.00000000	          0.00000000	          0.00000000	          0.00000000	          0.00127232	          0.00000000	          0.00000000	          0.00000000	          0.00000000	          0.00000000	          0.00000000	          0.00000000	          0.00000000	          0.00000000	          0.00000000	
          1.59400000	         -0.00056309	          0.00000000	          0.00000000	          0.00000000	          0.00000000	          0.00137431	          0.00000000	          0.00000000	          0.00000000	          0.00000000	          0.00000000	          0.00000000	          0.00000000	          0.00000000	          0.00000000	          0.00000000	
          1.59500000	         -0.00037795	          0.00000000	          0.00000000	          0.00000000	          0.00000000	          0.00151072	          0.00000000	          0.00000000	          0.00000000	          0.00000000	          0.00000000	          0.00000000	          0.00000000	          0.00000000	          0.00000000	          0.00000000	
          1.59600000	         -0.00014262	          0.00000000	          0.00000000	          0.00000000	          0.00000000	          0.00168596	          0.00000000	          0.00000000	          0.00000000	          0.00000000	          0.00000000	          0.00000000	          0.00000000	          0.00000000	          0.00000000	          0.00000000	
          1.59700000	          0.00015359	          0.00040665	          0.00015104	          0.00008635	          0.00011604	          0.00190390	          0.00082400	          0.00021762	          0.00012788	          0.00007455	          0.00029429	          0.00084590	          0.00023435	          0.00040471	          0.00000000	          0.00011617	
          1.59800000	          0.00052338	          0.00126688	          0.00059132	          0.00033926	          0.00074933	          0.00216788	          0.00252993	          0.00079171	          0.00051055	          0.00031046	          0.00160199	          0.00263189	          0.00120535	          0.00109449	          0.00014270	          0.00051443	
          1.59900000	          0.00097889	          0.00229879	          0.00112574	          0.00064565	          0.00154693	          0.00248043	          0.00456841	          0.00149091	          0.00097709	          0.00059723	          0.00322949	          0.00475838	          0.00241337	          0.00190843	          0.00036070	          0.00100350	
          1.60000000	          0.00152998	          0.00351236	          0.00176192	          0.00101048	          0.00253118	          0.00284332	          0.00696251	          0.00232400	          0.00153938	          0.00093919	          0.00520628	          0.00724503	          0.00388910	          0.00285682	          0.00064136	          0.00159262	
          1.60100000	          0.00218396	          0.00491455	          0.00250613	          0.00143917	          0.00372118	          0.00325772	          0.00973101	          0.00329761	          0.00221635	          0.00134061	          0.00755554	          0.01010960	          0.00567049	          0.00395258	          0.00099201	          0.00229193	
          1.60200000	          0.00294605	          0.00650956	          0.00336330	          0.00193791	          0.00513406	          0.00372468	          0.01288634	          0.00441669	          0.00303386	          0.00180579	          0.01029445	          0.01336626	          0.00780151	          0.00521109	          0.00141905	          0.00311161	
          1.60300000	          0.00382006	          0.00829883	          0.00433689	          0.00251391	          0.00678470	          0.00424506	          0.01643484	          0.00568501	          0.00402136	          0.00233904	          0.01343449	          0.01702482	          0.01032380	          0.00664947	          0.00192806	          0.00406048	
          1.60400000	          0.00480871	          0.01028100	          0.00542892	          0.00317511	          0.00868497	          0.00481923	          0.02037808	          0.00710703	          0.00521105	          0.00294475	          0.01698183	          0.02109073	          0.01327055	          0.00828536	          0.00252379	          0.00514571	
          1.60500000	          0.00591347	          0.01245237	          0.00664013	          0.00392886	          0.01084384	          0.00544692	          0.02471711	          0.00869010	          0.00664179	          0.00362789	          0.02093733	          0.02556473	          0.01666592	          0.01013563	          0.00320983	          0.00637326	
          1.60600000	          0.00713454	          0.01480764	          0.00797052	          0.00478101	          0.01326762	          0.00612747	          0.02946266	          0.01044423	          0.00836105	          0.00439430	          0.02529669	          0.03044249	          0.02052622	          0.01221607	          0.00398873	          0.00774814	
          1.60700000	          0.00847098	          0.01734073	          0.00942046	          0.00573579	          0.01595917	          0.00686017	          0.03464562	          0.01237945	          0.01041979	          0.00524970	          0.03005184	          0.03571461	          0.02486067	          0.01454170	          0.00486247	          0.00927488	
          1.60800000	          0.00992086	          0.02004482	          0.01099129	          0.00679584	          0.01891731	          0.00764452	          0.04031801	          0.01450348	          0.01286437	          0.00619850	          0.03519340	          0.04136730	          0.02967179	          0.01712617	          0.00583274	          0.01095762	
          1.60900000	          0.01148133	          0.02291218	          0.01268480	          0.00796200	          0.02213702	          0.00848027	          0.04654290	          0.01682088	          0.01573231	          0.00724326	          0.04071205	          0.04738308	          0.03495573	          0.01998052	          0.00690089	          0.01279975	
          1.61000000	          0.01314887	          0.02593423	          0.01450238	          0.00923337	          0.02560977	          0.00936734	          0.05338130	          0.01933330	          0.01905175	          0.00838511	          0.04659761	          0.05374087	          0.04070241	          0.02311187	          0.00806757	          0.01480363	
          1.61100000	          0.01491937	          0.02910169	          0.01644419	          0.01060757	          0.02932377	          0.01030573	          0.06088703	          0.02204107	          0.02284132	          0.00962466	          0.05283862	          0.06041576	          0.04689603	          0.02652370	          0.00933273	          0.01697049	
          1.61200000	          0.01678818	          0.03240436	          0.01850889	          0.01208104	          0.03326456	          0.01129535	          0.06911195	          0.02494482	          0.02711030	          0.01096282	          0.05942842	          0.06737913	          0.05351617	          0.03021664	          0.01069585	          0.01929998	
          1.61300000	          0.01874995	          0.03583057	          0.02069339	          0.01364912	          0.03741608	          0.01233610	          0.07811096	          0.02804534	          0.03185971	          0.01240060	          0.06637352	          0.07459953	          0.06053907	          0.03418888	          0.01215619	          0.02178946	
          1.61400000	          0.02079851	          0.03936695	          0.02299272	          0.01530598	          0.04176255	          0.01342816	          0.08793778	          0.03134251	          0.03708331	          0.01393816	          0.07369201	          0.08204389	          0.06793825	          0.03843626	          0.01371281	          0.02443400	
          1.61500000	          0.02292692	          0.04299841	          0.02540057	          0.01704475	          0.04628984	          0.01457255	          0.09863574	          0.03483475	          0.04276809	          0.01557428	          0.08140256	          0.08967862	          0.07568422	          0.04295234	          0.01536456	          0.02722720	
          1.61600000	          0.02512742	          0.04670858	          0.02791100	          0.01885811	          0.05098555	          0.01577108	          0.11023254	          0.03851885	          0.04889470	          0.01730653	          0.08951653	          0.09747164	          0.08374393	          0.04772862	          0.01710995	          0.03016180	
          1.61700000	          0.02739152	          0.05048024	          0.03051981	          0.02073905	          0.05583843	          0.01702576	          0.12274172	          0.04239026	          0.05543845	          0.01913189	          0.09803584	          0.10539489	          0.09208110	          0.05275555	          0.01894713	          0.03322961	
          1.61800000	          0.02971017	          0.05429559	          0.03322429	          0.02268135	          0.06083854	          0.01833900	          0.13616624	          0.04644340	          0.06237062	          0.02104694	          0.10695270	          0.11342478	          0.10065764	          0.05802301	          0.02087372	          0.03642128	
